<svg version="1.1" id="Layer_1" xmlns="http://www.w3.org/2000/svg" xmlns:xlink="http://www.w3.org/1999/xlink" x="0px" y="0px"
	 width="100%" viewBox="0 0 500 500" enable-background="new 0 0 500 500" xml:space="preserve">
<path fill="#000000" opacity="1.000000" stroke="none" 
	d="
M347.000000,501.000000 
	C231.333359,501.000000 116.166725,501.000000 1.000062,501.000000 
	C1.000041,334.333405 1.000041,167.666794 1.000021,1.000151 
	C167.666550,1.000101 334.333099,1.000101 500.999756,1.000050 
	C500.999817,167.666519 500.999817,334.333038 500.999908,500.999786 
	C449.833344,501.000000 398.666656,501.000000 347.000000,501.000000 
M200.414413,76.262711 
	C200.053116,77.186562 199.691833,78.110413 199.164658,79.648155 
	C199.091766,80.065842 199.018890,80.483521 198.393219,81.276756 
	C198.034698,82.527527 197.676178,83.778297 197.080658,85.767311 
	C196.747589,86.703201 195.953232,87.761024 196.162720,88.553497 
	C196.991043,91.687073 197.167496,94.346695 193.571259,95.931259 
	C193.129868,96.125740 192.883240,97.478462 193.039185,98.185760 
	C193.646164,100.938606 194.451797,103.647644 195.125946,106.158463 
	C192.872757,109.134735 188.942841,112.106689 188.510086,115.521797 
	C188.077560,118.935181 191.143738,122.791924 192.698303,126.507126 
	C188.221329,129.162415 181.828842,131.247040 181.915588,139.200302 
	C181.924973,140.060913 181.309509,141.161850 180.635986,141.758774 
	C176.009964,145.858871 171.557053,150.231445 166.527390,153.777237 
	C161.521057,157.306564 156.125061,160.486847 150.500763,162.883438 
	C143.742554,165.763199 136.688370,168.257935 129.518921,169.748932 
	C125.093994,170.669159 120.215187,169.406921 114.757965,169.077240 
	C115.274529,171.398392 115.091721,173.536346 116.040848,174.343887 
	C120.869324,178.452042 125.535149,183.218369 131.157959,185.774078 
	C135.443726,187.722046 141.073425,186.713226 146.428589,187.824432 
	C177.625534,187.884827 208.822540,187.932037 240.019318,188.041489 
	C241.713470,188.047440 243.405807,188.573822 244.823044,189.550674 
	C244.828735,196.341400 244.834427,203.132141 244.497162,210.245087 
	C244.288254,210.501923 244.194183,210.795578 244.191620,211.876587 
	C244.190201,212.877380 244.188782,213.878174 244.265472,215.347168 
	C244.389618,215.648621 244.586700,215.890671 244.855743,216.998993 
	C244.138779,222.772537 246.549316,228.944382 242.555496,235.727295 
	C240.951553,232.219177 238.988831,229.850204 238.912048,227.421616 
	C238.597900,217.485611 238.684341,207.525986 238.993347,197.586563 
	C239.120560,193.494736 237.293137,192.680725 232.987457,193.044006 
	C204.688675,193.071396 176.389908,193.098785 147.373993,193.061020 
	C146.607391,193.404007 145.840805,193.747009 144.755127,194.232773 
	C151.930832,199.918503 158.672867,205.260620 165.643570,210.783936 
	C165.317093,212.510529 164.929169,214.562103 164.551239,216.560776 
	C163.800735,216.741089 163.320602,216.974960 162.854126,216.950333 
	C157.805038,216.683548 153.505234,216.979263 155.566177,224.135666 
	C155.845016,225.103928 154.625610,227.138199 153.564392,227.750275 
	C148.407578,230.724564 143.123398,233.494354 137.780289,236.125290 
	C130.571411,239.674896 122.773041,242.277344 116.116310,246.641708 
	C105.215408,253.788666 93.154816,255.137787 80.804955,255.901382 
	C78.466141,256.045990 76.072624,255.305588 72.612724,254.820526 
	C74.274628,257.340118 75.168289,259.073120 76.406654,260.508759 
	C82.644493,267.740143 89.243286,274.662964 99.677216,274.898895 
	C110.772758,275.149811 121.878738,274.938751 133.661591,275.067627 
	C134.122955,275.033936 134.584305,275.000244 135.975876,275.017395 
	C169.965149,275.018280 203.954453,275.005646 237.943649,275.060242 
	C239.642273,275.062958 241.339966,275.649017 243.034683,276.547485 
	C242.995377,277.621765 242.956070,278.696045 241.996368,279.877838 
	C230.682098,279.915070 219.367828,279.952271 207.676758,279.187897 
	C197.804581,279.179657 187.932404,279.171417 177.203766,279.053864 
	C170.488693,279.367584 163.773605,279.681274 156.682083,279.192200 
	C146.815125,279.181061 136.948181,279.169922 126.264969,279.047058 
	C123.588181,279.269287 120.903122,279.420654 118.236786,279.732269 
	C115.156013,280.092316 112.091751,280.593597 108.937759,281.753601 
	C109.294426,282.456635 109.473473,283.384460 110.035049,283.828125 
	C116.071579,288.597382 121.992828,293.546021 128.324387,297.893982 
	C131.399719,300.005890 133.143509,302.255859 133.011215,306.865906 
	C132.995087,308.813568 132.844009,310.771423 132.990753,312.706757 
	C133.300873,316.796570 133.766617,320.874573 134.163879,325.647827 
	C134.150818,326.107880 134.137756,326.567963 133.477386,327.569305 
	C133.366791,342.401154 133.256195,357.232971 132.196671,372.129272 
	C127.473976,372.129761 122.751282,372.130249 117.568527,372.236908 
	C117.271523,372.415863 117.120804,372.678772 116.842438,373.624115 
	C116.878029,377.369751 116.913620,381.115356 116.373093,385.232178 
	C117.964401,385.819580 119.546501,386.884003 121.148552,386.914948 
	C129.791595,387.081848 138.440063,387.042999 147.085556,386.960266 
	C149.645386,386.935760 152.204865,386.319244 154.758896,386.356659 
	C160.407669,386.439423 166.054871,386.987152 171.699081,386.937134 
	C179.252014,386.870270 186.803528,386.134705 194.352112,386.187683 
	C210.570450,386.301544 226.786560,386.736298 243.201935,387.602509 
	C243.093109,388.422516 242.984268,389.242523 241.955353,390.004425 
	C195.497849,390.002930 149.040314,389.993225 102.582863,390.037048 
	C101.086609,390.038483 99.590881,390.587769 97.986397,391.727661 
	C98.022827,396.848572 98.059250,401.969513 98.250504,407.755371 
	C99.006882,408.046722 99.767334,408.601196 100.519012,408.589569 
	C110.139397,408.440521 119.757858,408.077820 129.378113,408.029358 
	C147.862640,407.936218 166.348022,408.022430 184.833023,408.009949 
	C202.180908,407.998199 219.528748,407.955078 237.807022,407.975769 
	C243.927551,408.162720 250.176865,407.180634 256.437225,410.522034 
	C266.674194,414.942810 276.911163,419.363586 287.899048,423.613281 
	C293.741119,422.676208 299.630951,421.967255 305.415833,420.756897 
	C319.544952,417.800751 333.612335,414.550629 347.729614,411.536316 
	C360.237518,408.865723 372.789154,406.400391 385.301208,403.748688 
	C390.509521,402.644897 395.665253,401.292969 400.922028,399.469574 
	C400.914825,399.273224 400.907623,399.076843 400.991425,397.962067 
	C400.994110,320.499268 401.001984,243.036484 400.960449,165.573715 
	C400.959656,164.107651 400.375427,162.641891 399.382874,160.852921 
	C397.153137,159.900940 394.876831,159.044144 392.701660,157.980515 
	C383.177277,153.323090 373.741272,148.481049 364.162384,143.939667 
	C350.149902,137.296295 336.042633,130.852936 321.975739,124.324295 
	C310.352051,118.929588 298.728363,113.534874 286.349945,108.062843 
	C284.829803,108.600243 283.136414,108.869186 281.818390,109.719765 
	C274.695648,114.316284 267.552490,118.899826 260.684570,123.859215 
	C258.985748,125.085945 257.406586,127.641129 257.283997,129.676651 
	C256.864777,136.638733 257.222046,143.643387 257.084076,150.627853 
	C256.964081,156.701263 258.682495,161.057693 265.196686,163.086533 
	C268.987488,164.267181 272.300751,166.981201 276.214905,169.226761 
	C275.177246,169.946487 274.437439,170.863266 273.927887,170.749435 
	C269.687592,169.802109 265.103333,169.402252 261.355682,167.438614 
	C252.205795,162.644440 243.319336,157.304581 234.589600,151.769928 
	C230.323654,149.065292 226.621918,145.462067 222.731232,142.186646 
	C222.308060,141.830399 222.323029,140.950470 222.140930,140.311691 
	C221.394745,137.694122 221.267761,134.619781 219.753006,132.571198 
	C217.778061,129.900253 214.703674,128.042297 213.061493,126.648537 
	C214.389709,122.257126 216.961838,118.237923 216.212875,114.982872 
	C215.445557,111.648041 211.426926,109.061310 208.806335,106.119057 
	C213.250351,101.465210 213.239594,100.659821 209.026382,94.263138 
	C208.481430,93.435768 208.257034,92.063080 208.504517,91.102898 
	C209.969604,85.418991 206.860397,80.848061 205.021484,75.155212 
	C204.653229,73.461555 204.284988,71.767899 203.916748,70.074242 
	C203.323456,70.095535 202.730148,70.116821 202.136856,70.138115 
	C201.752213,72.087502 201.367569,74.036896 200.999390,76.000000 
	C200.999390,76.000000 200.986557,75.986298 200.414413,76.262711 
z"/>
<path fill="#273E47" opacity="1.000000" stroke="none" 
	d="
M98.095680,407.090424 
	C98.059250,401.969513 98.022827,396.848572 98.278244,391.352844 
	C98.570091,390.977997 99.025475,391.145294 99.119995,391.288513 
	C99.470329,391.328735 99.726128,391.225739 100.442749,391.038757 
	C105.611504,391.012634 110.319435,391.070465 115.345528,391.391785 
	C116.477539,391.776978 117.291344,392.004852 118.105263,392.005249 
	C157.814606,392.024261 197.523956,392.031860 237.233246,391.987335 
	C238.479950,391.985931 239.726028,391.424194 241.288101,391.038269 
	C242.037735,390.913147 242.471664,390.873444 243.108856,391.092102 
	C246.208389,389.802612 245.131180,387.862610 243.593216,385.578308 
	C241.514038,385.165894 239.691635,385.002899 237.869003,385.000305 
	C197.562424,384.943146 157.255814,384.903748 116.949219,384.860962 
	C116.913620,381.115356 116.878029,377.369751 117.158241,373.205200 
	C117.700340,372.602875 117.885185,372.384338 118.028587,372.130737 
	C122.751282,372.130249 127.473976,372.129761 133.040680,371.962219 
	C134.257568,370.599426 134.947220,369.405670 134.954620,368.207672 
	C135.032654,355.570190 135.023331,342.931976 134.963058,330.294281 
	C134.957870,329.204224 134.416809,328.116699 134.124695,327.028015 
	C134.137756,326.567963 134.150818,326.107880 134.407135,324.978394 
	C134.650375,316.960541 134.650375,309.612091 134.650375,302.105011 
	C134.107834,303.422089 133.594421,304.668457 133.081009,305.914856 
	C133.143509,302.255859 131.399719,300.005890 128.324387,297.893982 
	C121.992828,293.546021 116.071579,288.597382 110.035049,283.828125 
	C109.473473,283.384460 109.294426,282.456635 109.444923,281.429932 
	C119.656303,280.948669 129.360519,280.791077 139.374420,280.671814 
	C140.098679,280.684814 140.513245,280.659515 141.349365,280.777191 
	C143.534683,280.824829 145.298462,280.729462 147.372437,280.672180 
	C148.097809,280.684906 148.512985,280.659546 149.381897,280.778015 
	C159.275528,280.826111 168.715424,280.730408 178.583893,280.674408 
	C181.312531,280.687347 183.612579,280.660583 186.204514,280.746307 
	C186.691757,280.785736 186.887100,280.712738 187.435593,280.680328 
	C188.498032,280.693878 189.207336,280.666809 190.208069,280.749756 
	C190.693802,280.786407 190.888107,280.713043 191.388855,280.679260 
	C192.105637,280.692352 192.515945,280.665863 193.274872,280.772644 
	C194.104706,280.817078 194.585892,280.728302 195.422119,280.680420 
	C196.490311,280.694244 197.203461,280.667145 198.208069,280.750244 
	C198.693817,280.787018 198.888123,280.713562 199.464539,280.681091 
	C200.869980,280.695099 201.893295,280.668091 203.209702,280.751587 
	C203.697327,280.786224 203.891876,280.710297 204.391266,280.672180 
	C205.104126,280.684509 205.512131,280.658997 206.374741,280.776337 
	C217.746811,280.994110 228.664368,281.109253 239.581573,281.082916 
	C240.694351,281.080231 241.805069,280.228210 242.916748,279.770325 
	C242.956070,278.696045 242.995377,277.621765 243.309692,276.175049 
	C243.388977,275.164825 243.193253,274.527039 242.670990,273.634918 
	C242.028336,273.280487 241.712311,273.092987 241.396088,273.092651 
	C206.427948,273.053436 171.459763,273.009460 136.491821,273.083374 
	C135.319977,273.085846 134.150665,274.287018 132.980164,274.929443 
	C121.878738,274.938751 110.772758,275.149811 99.677216,274.898895 
	C89.243286,274.662964 82.644493,267.740143 76.406654,260.508759 
	C75.168289,259.073120 74.274628,257.340118 72.612724,254.820526 
	C76.072624,255.305588 78.466141,256.045990 80.804955,255.901382 
	C93.154816,255.137787 105.215408,253.788666 116.116310,246.641708 
	C122.773041,242.277344 130.571411,239.674896 137.780289,236.125290 
	C143.123398,233.494354 148.407578,230.724564 153.564392,227.750275 
	C154.625610,227.138199 155.845016,225.103928 155.566177,224.135666 
	C153.505234,216.979263 157.805038,216.683548 162.854126,216.950333 
	C163.320602,216.974960 163.800735,216.741089 164.551239,216.560776 
	C164.929169,214.562103 165.317093,212.510529 165.643570,210.783936 
	C158.672867,205.260620 151.930832,199.918503 144.755127,194.232773 
	C145.840805,193.747009 146.607391,193.404007 148.045227,193.348022 
	C149.532516,193.756805 150.348465,193.984512 151.164597,193.985046 
	C177.487350,194.002350 203.810120,194.009628 230.132797,193.959717 
	C231.390198,193.957321 232.646561,193.420120 233.903412,193.131958 
	C237.293137,192.680725 239.120560,193.494736 238.993347,197.586563 
	C238.684341,207.525986 238.597900,217.485611 238.912048,227.421616 
	C238.988831,229.850204 240.951553,232.219177 242.555496,235.727295 
	C246.549316,228.944382 244.138779,222.772537 244.822662,216.299957 
	C244.667114,215.294968 244.466385,215.054321 244.187363,214.878967 
	C244.188782,213.878174 244.190201,212.877380 244.375244,211.341003 
	C244.768555,210.548218 244.862305,210.254028 244.840118,209.922867 
	C244.834427,203.132141 244.828735,196.341400 245.235992,189.121216 
	C245.737564,188.142197 245.826187,187.592667 246.176270,186.950287 
	C246.507446,186.623779 246.577194,186.390091 246.646942,186.156403 
	C246.332489,186.111084 246.018082,186.026169 245.703629,186.026047 
	C213.911255,186.014236 182.118866,186.003006 150.326538,186.038544 
	C149.570908,186.039383 148.815872,186.568405 147.740051,186.924408 
	C146.981430,187.005112 146.543335,187.012466 146.105240,187.019806 
	C141.073425,186.713226 135.443726,187.722046 131.157959,185.774078 
	C125.535149,183.218369 120.869324,178.452042 116.040848,174.343887 
	C115.091721,173.536346 115.274529,171.398392 114.757965,169.077240 
	C120.215187,169.406921 125.093994,170.669159 129.518921,169.748932 
	C136.688370,168.257935 143.742554,165.763199 150.500763,162.883438 
	C156.125061,160.486847 161.521057,157.306564 166.527390,153.777237 
	C171.557053,150.231445 176.009964,145.858871 180.635986,141.758774 
	C181.309509,141.161850 181.924973,140.060913 181.915588,139.200302 
	C181.828842,131.247040 188.221329,129.162415 192.698303,126.507126 
	C191.143738,122.791924 188.077560,118.935181 188.510086,115.521797 
	C188.942841,112.106689 192.872757,109.134735 195.125946,106.158463 
	C194.451797,103.647644 193.646164,100.938606 193.039185,98.185760 
	C192.883240,97.478462 193.129868,96.125740 193.571259,95.931259 
	C197.167496,94.346695 196.991043,91.687073 196.162720,88.553497 
	C195.953232,87.761024 196.747589,86.703201 197.514282,85.281296 
	C198.280624,83.497261 198.613312,82.199234 198.946014,80.901207 
	C199.018890,80.483521 199.091766,80.065842 199.545471,79.242676 
	C200.279709,77.886894 200.633133,76.936592 200.986557,75.986298 
	C200.986557,75.986298 200.999390,76.000000 201.397995,75.998672 
	C202.882629,75.983368 203.968674,75.969398 205.054703,75.955429 
	C206.860397,80.848061 209.969604,85.418991 208.504517,91.102898 
	C208.257034,92.063080 208.481430,93.435768 209.026382,94.263138 
	C213.239594,100.659821 213.250351,101.465210 208.806335,106.119057 
	C211.426926,109.061310 215.445557,111.648041 216.212875,114.982872 
	C216.961838,118.237923 214.389709,122.257126 213.061493,126.648537 
	C214.703674,128.042297 217.778061,129.900253 219.753006,132.571198 
	C221.267761,134.619781 221.394745,137.694122 222.140930,140.311691 
	C222.323029,140.950470 222.308060,141.830399 222.731232,142.186646 
	C226.621918,145.462067 230.323654,149.065292 234.589600,151.769928 
	C243.319336,157.304581 252.205795,162.644440 261.355682,167.438614 
	C265.103333,169.402252 269.687592,169.802109 273.927887,170.749435 
	C274.437439,170.863266 275.177246,169.946487 276.214905,169.226761 
	C272.300751,166.981201 268.987488,164.267181 265.196686,163.086533 
	C258.682495,161.057693 256.964081,156.701263 257.084076,150.627853 
	C257.222046,143.643387 256.864777,136.638733 257.283997,129.676651 
	C257.406586,127.641129 258.985748,125.085945 260.684570,123.859215 
	C267.552490,118.899826 274.695648,114.316284 281.818390,109.719765 
	C283.136414,108.869186 284.829803,108.600243 286.710083,108.559555 
	C287.041870,110.887566 286.988708,112.718872 286.988708,114.550171 
	C286.988922,204.141556 286.987549,293.732941 287.004608,383.324310 
	C287.007172,396.811005 287.098114,410.297668 287.148132,423.784363 
	C276.911163,419.363586 266.674194,414.942810 256.165649,409.884888 
	C254.620880,408.352631 253.369675,406.726593 252.070709,406.687531 
	C246.068817,406.506958 240.053619,406.767883 233.603333,406.942566 
	C231.089432,406.958862 229.015366,406.903168 226.623169,406.596497 
	C221.884247,406.520630 217.463470,406.695740 212.694260,406.931396 
	C211.878738,406.939545 211.411652,406.887146 210.860779,406.701050 
	C210.458099,406.392426 210.214722,406.484131 209.705124,406.920593 
	C208.899536,406.959290 208.435654,406.919861 207.879578,406.745605 
	C207.464050,406.415588 207.213882,406.504059 206.691986,406.921814 
	C205.886047,406.927399 205.425003,406.887360 204.872559,406.716064 
	C204.458359,406.413116 204.211151,406.507904 203.610718,406.948364 
	C201.441376,406.977997 199.700867,406.928375 197.638458,406.623230 
	C188.891525,406.537140 180.466492,406.706573 171.637970,406.954437 
	C170.143555,406.982300 169.052612,406.931702 167.641266,406.623505 
	C162.576874,406.244354 157.829971,405.961365 153.089722,406.046906 
	C148.402481,406.131470 143.721954,406.588196 138.608246,406.947113 
	C136.441086,406.969757 134.704147,406.927002 132.822266,406.689575 
	C132.137558,406.611328 131.597778,406.727722 130.710388,406.913971 
	C129.894455,406.947723 129.426163,406.911652 128.635773,406.621033 
	C120.555489,406.537872 112.797287,406.709198 104.658615,406.957703 
	C103.506958,406.980316 102.735756,406.925720 101.813614,406.677612 
	C101.118919,406.617310 100.575188,406.750519 99.713394,406.954102 
	C98.962112,407.046478 98.528900,407.068451 98.095680,407.090424 
M270.995392,397.000488 
	C270.995392,397.000488 270.949890,397.040710 271.380280,397.563416 
	C276.191620,400.109253 276.191620,400.109253 276.843842,396.086792 
	C276.815094,388.013428 276.786377,379.940033 276.895599,370.965973 
	C276.937408,336.906921 277.004181,302.847870 277.010803,268.788818 
	C277.014282,250.848831 276.912689,232.908813 276.947906,214.039398 
	C276.947906,203.642151 276.947906,193.244904 276.947906,181.853271 
	C269.390930,186.502350 262.662872,190.641449 255.279663,195.377441 
	C255.203384,204.246902 255.127121,213.116364 254.908768,222.916122 
	C254.904007,277.253479 254.897034,331.590851 254.907730,385.928223 
	C254.907990,387.249756 255.104843,388.571259 255.504044,390.508545 
	C259.950256,392.366791 264.396484,394.225006 269.261841,396.528748 
	C269.835632,396.705811 270.409393,396.882874 270.995392,397.000488 
M214.852890,320.026306 
	C214.852890,320.026306 214.915771,320.270691 214.280914,320.075531 
	C213.845306,320.009338 213.409698,319.943115 212.348389,319.333740 
	C205.239456,319.516510 198.130539,319.699249 190.201904,320.051453 
	C188.461548,320.396729 186.721191,320.742004 185.060196,321.545471 
	C185.060196,321.545471 184.977921,322.003204 184.381577,322.588776 
	C184.272980,338.476135 184.155212,354.363464 184.092728,370.251007 
	C184.090485,370.826599 184.631805,371.404327 185.865738,372.039032 
	C195.779114,371.984222 205.692505,371.929413 216.218109,371.487793 
	C216.511612,370.591827 217.057892,369.696716 217.060974,368.799774 
	C217.113464,353.534058 217.119812,338.268036 217.050720,323.002441 
	C217.046127,321.986908 216.355484,320.974487 215.825073,319.641205 
	C215.552216,319.702850 215.279373,319.764465 214.852890,320.026306 
M226.969330,209.036316 
	C211.972183,209.031097 196.974854,208.992752 181.978104,209.067261 
	C180.313919,209.075531 178.652908,209.727280 177.058105,210.811234 
	C176.310867,216.650497 176.591873,216.987671 182.461349,216.992935 
	C195.715424,217.004852 208.969742,217.037964 222.223343,216.959717 
	C224.155991,216.948303 226.085297,216.372818 228.152695,216.681427 
	C228.747574,216.499954 229.869843,216.186020 229.862259,216.155853 
	C229.262665,213.768295 228.574631,211.402954 226.969330,209.036316 
M243.384369,294.446472 
	C242.577835,294.297607 241.771408,294.019226 240.964752,294.018555 
	C212.553070,293.994904 184.141357,293.980042 155.729797,294.041809 
	C154.136078,294.045258 152.543823,294.710754 150.346069,295.263336 
	C149.940689,296.176819 149.535324,297.090271 148.328796,298.200317 
	C147.885574,299.515045 147.060440,300.828491 147.056046,302.144684 
	C146.981628,324.407104 146.990906,346.669891 147.100372,368.932037 
	C147.103760,369.620178 148.380493,370.302032 149.583847,371.644836 
	C157.405838,371.757172 165.227844,371.869507 173.784103,371.531433 
	C173.897141,369.555267 174.102264,367.579376 174.108917,365.602844 
	C174.173691,346.367706 174.205246,327.132446 175.152222,307.919464 
	C192.466751,307.985229 209.781296,308.050964 227.062317,309.036926 
	C227.056595,328.621918 227.032852,348.206940 227.083130,367.791779 
	C227.086716,369.188690 227.632736,370.584198 228.871094,372.021973 
	C232.030533,372.037018 235.189972,372.066254 238.349396,372.064178 
	C244.991898,372.059784 244.991898,372.053040 244.931686,364.290344 
	C244.881226,363.148285 244.830780,362.006195 244.787384,360.297516 
	C244.763290,359.920715 244.739182,359.543945 244.874298,358.428680 
	C244.859268,357.928375 244.844238,357.428101 244.840286,356.042175 
	C244.834839,353.385406 244.829407,350.728607 244.901108,347.501068 
	C244.875763,347.310760 244.850433,347.120453 244.836685,346.012085 
	C244.813263,341.725189 244.789856,337.438263 244.929688,332.193054 
	C244.953613,321.199829 245.013519,310.206451 244.956696,299.213654 
	C244.949448,297.810547 244.333359,296.410614 243.384369,294.446472 
M244.168808,236.746567 
	C244.118561,236.589981 244.068298,236.433380 244.018021,236.276794 
	C243.966965,236.434692 243.915909,236.592590 244.168808,236.746567 
z"/>
<path fill="#3F6D89" opacity="1.000000" stroke="none" 
	d="
M287.523621,423.698822 
	C287.098114,410.297668 287.007172,396.811005 287.004608,383.324310 
	C286.987549,293.732941 286.988922,204.141556 286.988708,114.550171 
	C286.988708,112.718872 287.041870,110.887566 287.087463,108.598213 
	C298.728363,113.534874 310.352051,118.929588 321.975739,124.324295 
	C336.042633,130.852936 350.149902,137.296295 364.162384,143.939667 
	C373.741272,148.481049 383.177277,153.323090 392.701660,157.980515 
	C394.876831,159.044144 397.153137,159.900940 399.727814,161.326599 
	C400.013947,162.210480 399.955139,162.620712 399.624451,163.342560 
	C399.229919,165.469421 399.002258,167.284546 399.000366,169.099915 
	C398.975464,192.923019 398.981812,216.746185 398.981628,240.569321 
	C398.981201,291.880707 398.962097,343.192108 399.060089,394.503296 
	C399.063629,396.354645 400.223816,398.203735 400.844910,400.053894 
	C395.665253,401.292969 390.509521,402.644897 385.301208,403.748688 
	C372.789154,406.400391 360.237518,408.865723 347.729614,411.536316 
	C333.612335,414.550629 319.544952,417.800751 305.415833,420.756897 
	C299.630951,421.967255 293.741119,422.676208 287.523621,423.698822 
M301.816101,401.019928 
	C309.787476,399.332275 317.733459,397.510559 325.737091,395.993011 
	C334.544769,394.322998 343.413818,392.979248 352.240936,391.407990 
	C362.164825,389.641541 372.071747,387.779663 382.460632,386.473328 
	C387.339539,386.345398 385.938721,382.551147 385.941895,380.009918 
	C386.021271,316.417419 386.015076,252.824799 385.969513,189.232239 
	C385.968262,187.492157 385.365570,185.752502 385.112152,183.337769 
	C385.092102,182.886459 385.072052,182.435150 385.595032,181.381699 
	C385.734039,178.259201 385.873047,175.136719 386.012054,172.014206 
	C385.373657,171.998428 384.735260,171.982651 383.715027,171.367035 
	C382.642212,170.631088 381.645050,169.736801 380.485382,169.182678 
	C358.858521,158.848907 337.239258,148.498383 315.549927,138.296829 
	C310.571594,135.955292 305.338593,134.155106 299.412628,132.245499 
	C298.942169,134.201233 298.061798,136.156662 298.060242,138.112762 
	C297.991394,224.481506 298.000031,310.850281 297.999603,397.219086 
	C297.999603,398.383972 297.655762,399.729919 298.134521,400.644867 
	C298.415161,401.181305 300.007782,401.031219 301.816101,401.019928 
z"/>
<path fill="#DCEDFF" opacity="1.000000" stroke="none" 
	d="
M399.896301,163.030945 
	C399.955139,162.620712 400.013947,162.210480 400.068085,161.488129 
	C400.375427,162.641891 400.959656,164.107651 400.960449,165.573715 
	C401.001984,243.036484 400.994110,320.499268 400.562347,398.231934 
	C400.087463,372.839691 400.022430,347.177643 399.999847,321.515503 
	C399.953369,268.687317 399.929504,215.859131 399.896301,163.030945 
z"/>
<path fill="#284A61" opacity="1.000000" stroke="none" 
	d="
M399.624481,163.342560 
	C399.929504,215.859131 399.953369,268.687317 399.999847,321.515503 
	C400.022430,347.177643 400.087463,372.839691 400.516846,398.691101 
	C400.907623,399.076843 400.914825,399.273224 400.883484,399.761719 
	C400.223816,398.203735 399.063629,396.354645 399.060089,394.503296 
	C398.962097,343.192108 398.981201,291.880707 398.981628,240.569321 
	C398.981812,216.746185 398.975464,192.923019 399.000366,169.099915 
	C399.002258,167.284546 399.229919,165.469421 399.624481,163.342560 
z"/>
<path fill="#ACB7BA" opacity="1.000000" stroke="none" 
	d="
M116.661156,385.046570 
	C157.255814,384.903748 197.562424,384.943146 237.869003,385.000305 
	C239.691635,385.002899 241.514038,385.165894 243.381668,385.707520 
	C243.176743,386.401337 243.035675,386.694275 243.003571,387.039673 
	C226.786560,386.736298 210.570450,386.301544 194.352112,386.187683 
	C186.803528,386.134705 179.252014,386.870270 171.699081,386.937134 
	C166.054871,386.987152 160.407669,386.439423 154.758896,386.356659 
	C152.204865,386.319244 149.645386,386.935760 147.085556,386.960266 
	C138.440063,387.042999 129.791595,387.081848 121.148552,386.914948 
	C119.546501,386.884003 117.964401,385.819580 116.661156,385.046570 
z"/>
<path fill="#B6B9BA" opacity="1.000000" stroke="none" 
	d="
M101.964561,406.871124 
	C102.735756,406.925720 103.506958,406.980316 105.122345,407.009460 
	C113.630318,406.947876 121.294098,406.911713 128.957870,406.875580 
	C129.426163,406.911652 129.894455,406.947723 131.026184,406.971191 
	C132.115479,406.933777 132.541336,406.908997 132.967209,406.884216 
	C134.704147,406.927002 136.441086,406.969757 139.071991,406.999573 
	C149.297852,406.951447 158.629761,406.916260 167.961670,406.881104 
	C169.052612,406.931702 170.143555,406.982300 172.101456,407.006897 
	C181.299057,406.946838 189.629700,406.912811 197.960342,406.878784 
	C199.700867,406.928375 201.441376,406.977997 203.842957,406.991028 
	C204.504013,406.954437 204.963959,406.847351 204.963959,406.847351 
	C205.425003,406.887360 205.886047,406.927399 206.925430,406.980652 
	C207.503769,406.993866 207.971771,406.880463 207.971771,406.880463 
	C208.435654,406.919861 208.899536,406.959290 209.929871,406.955566 
	C210.496307,406.912476 210.944565,406.834717 210.944565,406.834717 
	C211.411652,406.887146 211.878738,406.939545 213.153091,406.986786 
	C218.287338,406.936890 222.614334,406.892181 226.941315,406.847473 
	C229.015366,406.903168 231.089432,406.958862 233.935593,406.994781 
	C235.430679,407.291901 236.153641,407.608826 236.876617,407.925751 
	C219.528748,407.955078 202.180908,407.998199 184.833023,408.009949 
	C166.348022,408.022430 147.862640,407.936218 129.378113,408.029358 
	C119.757858,408.077820 110.139397,408.440521 100.519012,408.589569 
	C99.767334,408.601196 99.006882,408.046722 98.173096,407.422913 
	C98.528900,407.068451 98.962112,407.046478 100.034653,407.003540 
	C101.104172,406.945465 101.534363,406.908295 101.964561,406.871124 
z"/>
<path fill="#FFFFFF" opacity="1.000000" stroke="none" 
	d="
M99.025475,391.145294 
	C99.025475,391.145294 98.570091,390.977997 98.332504,390.929810 
	C99.590881,390.587769 101.086609,390.038483 102.582863,390.037048 
	C149.040314,389.993225 195.497849,390.002930 242.448166,390.225281 
	C242.940979,390.446136 242.905594,390.833740 242.905594,390.833740 
	C242.471664,390.873444 242.037735,390.913147 240.824097,390.980652 
	C198.372055,391.048370 156.699722,391.088318 115.027374,391.128296 
	C110.319435,391.070465 105.611504,391.012634 100.202232,390.987823 
	C99.500900,391.020844 99.025475,391.145294 99.025475,391.145294 
z"/>
<path fill="#273238" opacity="1.000000" stroke="none" 
	d="
M133.320877,274.998535 
	C134.150665,274.287018 135.319977,273.085846 136.491821,273.083374 
	C171.459763,273.009460 206.427948,273.053436 241.396088,273.092651 
	C241.712311,273.092987 242.028336,273.280487 242.203354,273.670410 
	C208.251266,273.967804 174.440262,273.959900 140.629395,274.024933 
	C138.767548,274.028503 136.906891,274.638733 135.045670,274.966583 
	C134.584305,275.000244 134.122955,275.033936 133.320877,274.998535 
z"/>
<path fill="#838A8D" opacity="1.000000" stroke="none" 
	d="
M135.510773,274.992004 
	C136.906891,274.638733 138.767548,274.028503 140.629395,274.024933 
	C174.440262,273.959900 208.251266,273.967804 242.529877,273.924713 
	C243.193253,274.527039 243.388977,275.164825 243.311386,275.883057 
	C241.339966,275.649017 239.642273,275.062958 237.943649,275.060242 
	C203.954453,275.005646 169.965149,275.018280 135.510773,274.992004 
z"/>
<path fill="#C9CED4" opacity="1.000000" stroke="none" 
	d="
M245.914795,187.043121 
	C245.826187,187.592667 245.737564,188.142197 245.373962,188.774841 
	C243.405807,188.573822 241.713470,188.047440 240.019318,188.041489 
	C208.822540,187.932037 177.625534,187.884827 146.266907,187.422119 
	C146.543335,187.012466 146.981430,187.005112 148.201599,186.983948 
	C181.294052,186.994461 213.604431,187.018799 245.914795,187.043121 
z"/>
<path fill="#192930" opacity="1.000000" stroke="none" 
	d="
M133.801025,327.298645 
	C134.416809,328.116699 134.957870,329.204224 134.963058,330.294281 
	C135.023331,342.931976 135.032654,355.570190 134.954620,368.207672 
	C134.947220,369.405670 134.257568,370.599426 133.515137,371.929993 
	C133.256195,357.232971 133.366791,342.401154 133.801025,327.298645 
z"/>
<path fill="#394B52" opacity="1.000000" stroke="none" 
	d="
M233.445435,193.087982 
	C232.646561,193.420120 231.390198,193.957321 230.132797,193.959717 
	C203.810120,194.009628 177.487350,194.002350 151.164597,193.985046 
	C150.348465,193.984512 149.532516,193.756805 148.403809,193.380585 
	C176.389908,193.098785 204.688675,193.071396 233.445435,193.087982 
z"/>
<path fill="#FFFFFF" opacity="1.000000" stroke="none" 
	d="
M205.920135,280.633484 
	C205.512131,280.658997 205.104126,280.684509 204.289749,280.498169 
	C203.561127,280.404572 203.238861,280.522827 202.916611,280.641052 
	C201.893295,280.668091 200.869980,280.695099 199.364838,280.506470 
	C198.560867,280.407196 198.238739,280.523621 197.916611,280.640015 
	C197.203461,280.667145 196.490311,280.694244 195.259354,280.481201 
	C194.136444,280.373840 193.531342,280.506622 192.926254,280.639404 
	C192.515945,280.665863 192.105637,280.692352 191.289124,280.504700 
	C190.560837,280.406952 190.238739,280.523346 189.916641,280.639709 
	C189.207336,280.666809 188.498032,280.693878 187.336014,280.505676 
	C186.559738,280.404907 186.236176,280.519379 185.912613,280.633850 
	C183.612579,280.660583 181.312531,280.687347 178.616119,280.428070 
	C178.139526,279.820160 178.086365,279.493866 178.060226,279.163177 
	C187.932404,279.171417 197.804581,279.179657 207.573883,279.593750 
	C206.954056,280.210876 206.437103,280.422180 205.920135,280.633484 
z"/>
<path fill="#192930" opacity="1.000000" stroke="none" 
	d="
M133.046112,306.390381 
	C133.594421,304.668457 134.107834,303.422089 134.650375,302.105011 
	C134.650375,309.612091 134.650375,316.960541 134.409454,324.633209 
	C133.766617,320.874573 133.300873,316.796570 132.990753,312.706757 
	C132.844009,310.771423 132.995087,308.813568 133.046112,306.390381 
z"/>
<path fill="#192930" opacity="1.000000" stroke="none" 
	d="
M237.341827,407.950745 
	C236.153641,407.608826 235.430679,407.291901 234.375458,406.922791 
	C240.053619,406.767883 246.068817,406.506958 252.070709,406.687531 
	C253.369675,406.726593 254.620880,408.352631 255.951797,409.614319 
	C250.176865,407.180634 243.927551,408.162720 237.341827,407.950745 
z"/>
<path fill="#B4C3C3" opacity="1.000000" stroke="none" 
	d="
M206.374741,280.776337 
	C206.437103,280.422180 206.954056,280.210876 207.762299,279.994537 
	C219.367828,279.952271 230.682098,279.915070 242.456543,279.824066 
	C241.805069,280.228210 240.694351,281.080231 239.581573,281.082916 
	C228.664368,281.109253 217.746811,280.994110 206.374741,280.776337 
z"/>
<path fill="#B4C3C3" opacity="1.000000" stroke="none" 
	d="
M139.064743,280.633514 
	C129.360519,280.791077 119.656303,280.948669 109.486206,281.069885 
	C112.091751,280.593597 115.156013,280.092316 118.236786,279.732269 
	C120.903122,279.420654 123.588181,279.269287 126.964890,279.378479 
	C131.464783,280.017761 135.264755,280.325653 139.064743,280.633514 
z"/>
<path fill="#FFFFFF" opacity="1.000000" stroke="none" 
	d="
M139.374420,280.671814 
	C135.264755,280.325653 131.464783,280.017761 127.373016,279.434326 
	C136.948181,279.169922 146.815125,279.181061 156.443085,279.586761 
	C153.778778,280.198944 151.353470,280.416565 148.928146,280.634186 
	C148.512985,280.659546 148.097809,280.684906 147.084991,280.458588 
	C144.634171,280.349335 142.780991,280.491760 140.927811,280.634186 
	C140.513245,280.659515 140.098679,280.684814 139.374420,280.671814 
z"/>
<path fill="#B4C3C3" opacity="1.000000" stroke="none" 
	d="
M149.381897,280.778015 
	C151.353470,280.416565 153.778778,280.198944 156.631317,279.988159 
	C163.773605,279.681274 170.488693,279.367584 177.631989,279.108521 
	C178.086365,279.493866 178.139526,279.820160 178.187531,280.388367 
	C168.715424,280.730408 159.275528,280.826111 149.381897,280.778015 
z"/>
<path fill="#273238" opacity="1.000000" stroke="none" 
	d="
M205.038086,75.555313 
	C203.968674,75.969398 202.882629,75.983368 201.389771,75.991806 
	C201.367569,74.036896 201.752213,72.087502 202.136856,70.138115 
	C202.730148,70.116821 203.323456,70.095535 203.916748,70.074242 
	C204.284988,71.767899 204.653229,73.461555 205.038086,75.555313 
z"/>
<path fill="#0E1D23" opacity="1.000000" stroke="none" 
	d="
M243.108856,391.092102 
	C242.905594,390.833740 242.940979,390.446136 242.908203,390.254333 
	C242.984268,389.242523 243.093109,388.422516 243.102753,387.321106 
	C243.035675,386.694275 243.176743,386.401337 243.638336,386.031647 
	C245.131180,387.862610 246.208389,389.802612 243.108856,391.092102 
z"/>
<path fill="#273238" opacity="1.000000" stroke="none" 
	d="
M198.669617,81.088982 
	C198.613312,82.199234 198.280624,83.497261 197.632782,84.912178 
	C197.676178,83.778297 198.034698,82.527527 198.669617,81.088982 
z"/>
<path fill="#273238" opacity="1.000000" stroke="none" 
	d="
M200.700485,76.124504 
	C200.633133,76.936592 200.279709,77.886894 199.628418,78.935730 
	C199.691833,78.110413 200.053116,77.186562 200.700485,76.124504 
z"/>
<path fill="#192930" opacity="1.000000" stroke="none" 
	d="
M117.798553,372.183838 
	C117.885185,372.384338 117.700340,372.602875 117.295212,372.905945 
	C117.120804,372.678772 117.271523,372.415863 117.798553,372.183838 
z"/>
<path fill="#0E1D23" opacity="1.000000" stroke="none" 
	d="
M244.668640,210.083984 
	C244.862305,210.254028 244.768555,210.548218 244.386932,210.965744 
	C244.194183,210.795578 244.288254,210.501923 244.668640,210.083984 
z"/>
<path fill="#0E1D23" opacity="1.000000" stroke="none" 
	d="
M244.226410,215.113068 
	C244.466385,215.054321 244.667114,215.294968 244.823151,215.837112 
	C244.586700,215.890671 244.389618,215.648621 244.226410,215.113068 
z"/>
<path fill="#000000" opacity="1.000000" stroke="none" 
	d="
M244.775284,365.137085 
	C244.991898,372.053040 244.991898,372.059784 238.349396,372.064178 
	C235.189972,372.066254 232.030533,372.037018 228.422485,371.534668 
	C227.979294,351.759857 228.006973,332.472290 227.951202,313.184967 
	C227.946320,311.494751 227.393906,309.806091 227.095825,308.116730 
	C209.781296,308.050964 192.466751,307.985229 174.453400,307.669434 
	C173.183380,310.047516 172.157608,312.669037 172.118973,315.304962 
	C171.943085,327.302063 171.930847,339.304718 172.090820,351.302307 
	C172.182770,358.198517 172.715515,365.088867 173.049835,371.981842 
	C165.227844,371.869507 157.405838,371.757172 149.555389,371.053345 
	C149.659454,365.555450 149.884216,360.649445 149.905823,355.742584 
	C149.954483,344.689423 149.994751,333.634674 149.861115,322.582733 
	C149.762039,314.388000 149.383820,306.196625 149.129944,298.003754 
	C149.535324,297.090271 149.940689,296.176819 150.818207,295.431946 
	C151.896988,295.705414 152.503647,295.810303 153.568451,295.928284 
	C169.647522,295.933289 185.268417,295.925201 201.353577,295.962708 
	C215.539566,296.006470 229.261292,296.004639 242.976074,296.471130 
	C242.965775,307.266144 242.914505,317.593292 243.006668,327.919128 
	C243.021851,329.619507 243.666382,331.314301 244.206696,333.046387 
	C244.393326,333.081085 244.766434,333.151367 244.766434,333.151367 
	C244.789856,337.438263 244.813263,341.725189 244.710403,346.593933 
	C244.545929,347.284027 244.448654,347.416412 244.481125,347.495758 
	C244.564804,347.700317 244.705841,347.881378 244.823975,348.071838 
	C244.829407,350.728607 244.834839,353.385406 244.629791,356.633087 
	C244.517914,357.871704 244.616501,358.519440 244.715088,359.167145 
	C244.739182,359.543945 244.763290,359.920715 244.452301,360.678284 
	C242.328552,362.742401 242.172577,364.162323 244.775284,365.137085 
z"/>
<path fill="#2085B1" opacity="1.000000" stroke="none" 
	d="
M268.842712,396.083221 
	C264.396484,394.225006 259.950256,392.366791 255.587646,389.876099 
	C255.779694,387.259857 255.981964,385.276123 255.982819,383.292297 
	C256.003967,334.532562 256.003723,285.772827 256.395874,237.006805 
	C258.500092,235.580048 261.517151,234.319839 261.715057,232.712524 
	C262.799957,223.900864 271.298004,222.251541 275.992798,217.484421 
	C275.996918,267.321350 275.991150,316.690643 276.034393,366.059937 
	C276.036102,367.995728 276.505951,369.931091 276.757629,371.866669 
	C276.786377,379.940033 276.815094,388.013428 276.358307,396.544403 
	C274.231812,397.014893 272.590851,397.027802 270.949890,397.040710 
	C270.949890,397.040710 270.995392,397.000488 270.804932,396.777527 
	C270.023895,396.397461 269.433319,396.240356 268.842712,396.083221 
z"/>
<path fill="#000000" opacity="1.000000" stroke="none" 
	d="
M184.977921,322.003204 
	C184.977921,322.003204 185.060196,321.545471 185.489014,321.275848 
	C195.610550,320.951996 205.303268,320.897797 215.032425,321.321411 
	C215.085983,329.911896 215.047058,338.025238 215.135544,346.137177 
	C215.229111,354.717010 215.443985,363.295502 215.605881,371.874603 
	C205.692505,371.929413 195.779114,371.984222 185.422684,371.543976 
	C184.979065,354.700348 184.978500,338.351776 184.977921,322.003204 
z"/>
<path fill="#000000" opacity="1.000000" stroke="none" 
	d="
M228.016174,216.058350 
	C226.085297,216.372818 224.155991,216.948303 222.223343,216.959717 
	C208.969742,217.037964 195.715424,217.004852 182.461349,216.992935 
	C176.591873,216.987671 176.310867,216.650497 177.492447,210.413727 
	C192.647690,210.012955 207.368652,209.985535 222.089386,210.035599 
	C224.034363,210.042206 225.977982,210.443878 227.965302,211.110184 
	C228.010971,213.057968 228.013565,214.558151 228.016174,216.058350 
z"/>
<path fill="#3996BE" opacity="1.000000" stroke="none" 
	d="
M255.934830,194.780563 
	C262.662872,190.641449 269.390930,186.502350 276.947906,181.853271 
	C276.947906,193.244904 276.947906,203.642151 276.690338,214.511597 
	C276.432770,214.983795 276.006104,214.989014 276.005859,214.522308 
	C276.005646,208.566483 276.005646,203.077332 276.005646,196.264145 
	C270.909882,200.644470 266.916168,203.647858 263.473206,207.187042 
	C261.152344,209.572784 258.960693,210.231369 256.017029,208.562988 
	C255.984848,203.657288 255.959839,199.218933 255.934830,194.780563 
z"/>
<path fill="#192930" opacity="1.000000" stroke="none" 
	d="
M148.729370,298.102051 
	C149.383820,306.196625 149.762039,314.388000 149.861115,322.582733 
	C149.994751,333.634674 149.954483,344.689423 149.905823,355.742584 
	C149.884216,360.649445 149.659454,365.555450 149.295258,370.724304 
	C148.380493,370.302032 147.103760,369.620178 147.100372,368.932037 
	C146.990906,346.669891 146.981628,324.407104 147.056046,302.144684 
	C147.060440,300.828491 147.885574,299.515045 148.729370,298.102051 
z"/>
<path fill="#3591B8" opacity="1.000000" stroke="none" 
	d="
M256.007324,237.013107 
	C256.003723,285.772827 256.003967,334.532562 255.982819,383.292297 
	C255.981964,385.276123 255.779694,387.259857 255.440628,389.568207 
	C255.104843,388.571259 254.907990,387.249756 254.907730,385.928223 
	C254.897034,331.590851 254.904007,277.253479 255.214127,222.449799 
	C255.519485,221.983475 255.988434,221.976807 255.993439,222.445297 
	C256.001404,227.613556 256.004364,232.313339 256.007324,237.013107 
z"/>
<path fill="#3486AD" opacity="1.000000" stroke="none" 
	d="
M276.006104,214.989014 
	C276.006104,214.989014 276.432770,214.983795 276.645630,214.976303 
	C276.912689,232.908813 277.014282,250.848831 277.010803,268.788818 
	C277.004181,302.847870 276.937408,336.906921 276.826599,371.416321 
	C276.505951,369.931091 276.036102,367.995728 276.034393,366.059937 
	C275.991150,316.690643 275.996918,267.321350 275.996826,217.146301 
	C276.001709,215.890060 276.003906,215.439529 276.006104,214.989014 
z"/>
<path fill="#192930" opacity="1.000000" stroke="none" 
	d="
M153.110321,295.915222 
	C152.503647,295.810303 151.896988,295.705414 151.120605,295.334290 
	C152.543823,294.710754 154.136078,294.045258 155.729797,294.041809 
	C184.141357,293.980042 212.553070,293.994904 240.964752,294.018555 
	C241.771408,294.019226 242.577835,294.297607 243.689270,294.982971 
	C243.989761,295.689606 243.985336,295.859711 243.731628,296.015717 
	C243.482361,296.001617 242.983017,296.002808 242.983017,296.002808 
	C229.261292,296.004639 215.539566,296.006470 201.051178,295.698181 
	C185.146072,295.290100 170.007660,295.182831 154.869080,295.129364 
	C154.283752,295.127289 153.696609,295.641541 153.110321,295.915222 
z"/>
<path fill="#0E1D23" opacity="1.000000" stroke="none" 
	d="
M115.345528,391.391754 
	C156.699722,391.088318 198.372055,391.048370 240.508392,391.066071 
	C239.726028,391.424194 238.479950,391.985931 237.233246,391.987335 
	C197.523956,392.031860 157.814606,392.024261 118.105263,392.005249 
	C117.291344,392.004852 116.477539,391.776978 115.345528,391.391754 
z"/>
<path fill="#838A8D" opacity="1.000000" stroke="none" 
	d="
M173.416962,371.756653 
	C172.715515,365.088867 172.182770,358.198517 172.090820,351.302307 
	C171.930847,339.304718 171.943085,327.302063 172.118973,315.304962 
	C172.157608,312.669037 173.183380,310.047516 174.000427,307.658295 
	C174.205246,327.132446 174.173691,346.367706 174.108917,365.602844 
	C174.102264,367.579376 173.897141,369.555267 173.416962,371.756653 
z"/>
<path fill="#7C8291" opacity="1.000000" stroke="none" 
	d="
M215.911987,371.681213 
	C215.443985,363.295502 215.229111,354.717010 215.135544,346.137177 
	C215.047058,338.025238 215.085983,329.911896 214.958954,321.185638 
	C214.849045,320.572083 214.915771,320.270691 214.915771,320.270691 
	C214.915771,320.270691 214.852890,320.026306 215.161057,320.054260 
	C215.640793,320.041656 215.812363,320.001129 215.983948,319.960602 
	C216.355484,320.974487 217.046127,321.986908 217.050720,323.002441 
	C217.119812,338.268036 217.113464,353.534058 217.060974,368.799774 
	C217.057892,369.696716 216.511612,370.591827 215.911987,371.681213 
z"/>
<path fill="#061417" opacity="1.000000" stroke="none" 
	d="
M246.176254,186.950287 
	C213.604431,187.018799 181.294052,186.994461 148.522125,186.910614 
	C148.815872,186.568405 149.570908,186.039383 150.326538,186.038544 
	C182.118866,186.003006 213.911255,186.014236 245.703629,186.026047 
	C246.018082,186.026169 246.332489,186.111084 246.646942,186.156403 
	C246.577194,186.390091 246.507446,186.623779 246.176254,186.950287 
z"/>
<path fill="#7C8291" opacity="1.000000" stroke="none" 
	d="
M227.079071,308.576843 
	C227.393906,309.806091 227.946320,311.494751 227.951202,313.184967 
	C228.006973,332.472290 227.979294,351.759857 227.950195,371.513855 
	C227.632736,370.584198 227.086716,369.188690 227.083130,367.791779 
	C227.032852,348.206940 227.056595,328.621918 227.079071,308.576843 
z"/>
<path fill="#B6B9BA" opacity="1.000000" stroke="none" 
	d="
M227.922241,210.662598 
	C225.977982,210.443878 224.034363,210.042206 222.089386,210.035599 
	C207.368652,209.985535 192.647690,210.012955 177.458618,210.048401 
	C178.652908,209.727280 180.313919,209.075531 181.978104,209.067261 
	C196.974854,208.992752 211.972183,209.031097 227.477844,209.306305 
	C227.964981,209.938385 227.943604,210.300476 227.922241,210.662598 
z"/>
<path fill="#5F6A6E" opacity="1.000000" stroke="none" 
	d="
M184.679749,322.295990 
	C184.978500,338.351776 184.979065,354.700348 184.949707,371.515015 
	C184.631805,371.404327 184.090485,370.826599 184.092728,370.251007 
	C184.155212,354.363464 184.272980,338.476135 184.679749,322.295990 
z"/>
<path fill="#0E1D23" opacity="1.000000" stroke="none" 
	d="
M243.980911,296.029816 
	C243.985336,295.859711 243.989761,295.689606 243.996750,295.264343 
	C244.333359,296.410614 244.949448,297.810547 244.956696,299.213654 
	C245.013519,310.206451 244.953613,321.199829 244.848053,332.672211 
	C244.766434,333.151367 244.393326,333.081085 244.212204,332.576569 
	C244.014359,320.057983 243.997635,308.043884 243.980911,296.029816 
z"/>
<path fill="#FFFFFF" opacity="1.000000" stroke="none" 
	d="
M214.598343,320.173096 
	C214.915771,320.270691 214.849045,320.572083 214.922516,320.707825 
	C205.303268,320.897797 195.610550,320.951996 185.449341,321.046753 
	C186.721191,320.742004 188.461548,320.396729 191.076553,320.021881 
	C198.958832,319.953857 205.966461,319.915375 212.974091,319.876892 
	C213.409698,319.943115 213.845306,320.009338 214.598343,320.173096 
z"/>
<path fill="#192930" opacity="1.000000" stroke="none" 
	d="
M167.641266,406.623474 
	C158.629761,406.916260 149.297852,406.951447 139.502213,406.934143 
	C143.721954,406.588196 148.402481,406.131470 153.089722,406.046906 
	C157.829971,405.961365 162.576874,406.244354 167.641266,406.623474 
z"/>
<path fill="#3CA1CA" opacity="1.000000" stroke="none" 
	d="
M255.988434,221.976807 
	C255.988434,221.976807 255.519485,221.983475 255.285156,221.984650 
	C255.127121,213.116364 255.203384,204.246902 255.607239,195.079010 
	C255.959839,199.218933 255.984848,203.657288 256.012024,209.022629 
	C256.005585,213.958664 255.997009,217.967743 255.988434,221.976807 
z"/>
<path fill="#192930" opacity="1.000000" stroke="none" 
	d="
M197.638458,406.623230 
	C189.629700,406.912811 181.299057,406.946838 172.504929,406.928436 
	C180.466492,406.706573 188.891525,406.537140 197.638458,406.623230 
z"/>
<path fill="#192930" opacity="1.000000" stroke="none" 
	d="
M128.635773,406.621033 
	C121.294098,406.911713 113.630318,406.947876 105.502815,406.932312 
	C112.797287,406.709198 120.555489,406.537872 128.635773,406.621033 
z"/>
<path fill="#0E1D23" opacity="1.000000" stroke="none" 
	d="
M212.661240,319.605347 
	C205.966461,319.915375 198.958832,319.953857 191.486404,319.937134 
	C198.130539,319.699249 205.239456,319.516510 212.661240,319.605347 
z"/>
<path fill="#273238" opacity="1.000000" stroke="none" 
	d="
M227.965302,211.110168 
	C227.943604,210.300476 227.964981,209.938385 227.939819,209.306107 
	C228.574631,211.402954 229.262665,213.768295 229.862259,216.155853 
	C229.869843,216.186020 228.747574,216.499954 228.084442,216.369888 
	C228.013565,214.558151 228.010971,213.057968 227.965302,211.110168 
z"/>
<path fill="#192930" opacity="1.000000" stroke="none" 
	d="
M226.623169,406.596497 
	C222.614334,406.892181 218.287338,406.936890 213.501526,406.926208 
	C217.463470,406.695740 221.884247,406.520630 226.623169,406.596497 
z"/>
<path fill="#3486AD" opacity="1.000000" stroke="none" 
	d="
M271.165100,397.302063 
	C272.590851,397.027802 274.231812,397.014893 276.272827,397.006226 
	C276.191620,400.109253 276.191620,400.109253 271.165100,397.302063 
z"/>
<path fill="#0E1D23" opacity="1.000000" stroke="none" 
	d="
M244.853485,364.713715 
	C242.172577,364.162323 242.328552,362.742401 244.448761,360.961578 
	C244.830780,362.006195 244.881226,363.148285 244.853485,364.713715 
z"/>
<path fill="#B4C3C3" opacity="1.000000" stroke="none" 
	d="
M141.349365,280.777191 
	C142.780991,280.491760 144.634171,280.349335 146.774796,280.420502 
	C145.298462,280.729462 143.534683,280.824829 141.349365,280.777191 
z"/>
<path fill="#0E1D23" opacity="1.000000" stroke="none" 
	d="
M244.794693,358.797913 
	C244.616501,358.519440 244.517914,357.871704 244.624252,357.075897 
	C244.844238,357.428101 244.859268,357.928375 244.794693,358.797913 
z"/>
<path fill="#3486AD" opacity="1.000000" stroke="none" 
	d="
M269.052277,396.305969 
	C269.433319,396.240356 270.023895,396.397461 270.798828,396.807251 
	C270.409393,396.882874 269.835632,396.705811 269.052277,396.305969 
z"/>
<path fill="#192930" opacity="1.000000" stroke="none" 
	d="
M132.822266,406.689575 
	C132.541336,406.908997 132.115479,406.933777 131.373810,406.901337 
	C131.597778,406.727722 132.137558,406.611328 132.822266,406.689575 
z"/>
<path fill="#0E1D23" opacity="1.000000" stroke="none" 
	d="
M244.016830,236.748535 
	C243.915909,236.592590 243.966965,236.434692 244.018036,236.276794 
	C244.068298,236.433380 244.118561,236.589981 244.016830,236.748535 
z"/>
<path fill="#192930" opacity="1.000000" stroke="none" 
	d="
M101.813614,406.677612 
	C101.534363,406.908295 101.104172,406.945465 100.352715,406.933167 
	C100.575188,406.750519 101.118919,406.617310 101.813614,406.677612 
z"/>
<path fill="#B4C3C3" opacity="1.000000" stroke="none" 
	d="
M193.274872,280.772644 
	C193.531342,280.506622 194.136444,280.373840 194.904327,280.440308 
	C194.585892,280.728302 194.104706,280.817078 193.274872,280.772644 
z"/>
<path fill="#B4C3C3" opacity="1.000000" stroke="none" 
	d="
M198.208069,280.750244 
	C198.238739,280.523621 198.560867,280.407196 198.982712,280.465424 
	C198.888123,280.713562 198.693817,280.787018 198.208069,280.750244 
z"/>
<path fill="#0E1D23" opacity="1.000000" stroke="none" 
	d="
M215.904510,319.800903 
	C215.812363,320.001129 215.640793,320.041656 215.237869,319.954163 
	C215.279373,319.764465 215.552216,319.702850 215.904510,319.800903 
z"/>
<path fill="#B4C3C3" opacity="1.000000" stroke="none" 
	d="
M203.209702,280.751587 
	C203.238861,280.522827 203.561127,280.404572 203.984894,280.460388 
	C203.891876,280.710297 203.697327,280.786224 203.209702,280.751587 
z"/>
<path fill="#192930" opacity="1.000000" stroke="none" 
	d="
M210.860779,406.701050 
	C210.944565,406.834717 210.496307,406.912476 210.271576,406.877502 
	C210.214722,406.484131 210.458099,406.392426 210.860779,406.701050 
z"/>
<path fill="#192930" opacity="1.000000" stroke="none" 
	d="
M207.879578,406.745605 
	C207.971771,406.880463 207.503769,406.993866 207.270325,406.935028 
	C207.213882,406.504059 207.464050,406.415588 207.879578,406.745605 
z"/>
<path fill="#192930" opacity="1.000000" stroke="none" 
	d="
M204.872559,406.716064 
	C204.963959,406.847351 204.504013,406.954437 204.271790,406.911804 
	C204.211151,406.507904 204.458359,406.413116 204.872559,406.716064 
z"/>
<path fill="#0E1D23" opacity="1.000000" stroke="none" 
	d="
M244.862534,347.786438 
	C244.705841,347.881378 244.564804,347.700317 244.481125,347.495758 
	C244.448654,347.416412 244.545929,347.284027 244.704620,347.052979 
	C244.850433,347.120453 244.875763,347.310760 244.862534,347.786438 
z"/>
<path fill="#B4C3C3" opacity="1.000000" stroke="none" 
	d="
M186.204514,280.746307 
	C186.236176,280.519379 186.559738,280.404907 186.982880,280.465057 
	C186.887100,280.712738 186.691757,280.785736 186.204514,280.746307 
z"/>
<path fill="#0E1D23" opacity="1.000000" stroke="none" 
	d="
M99.119995,391.288513 
	C99.025475,391.145294 99.500900,391.020844 99.741409,391.071777 
	C99.726128,391.225739 99.470329,391.328735 99.119995,391.288513 
z"/>
<path fill="#B4C3C3" opacity="1.000000" stroke="none" 
	d="
M190.208069,280.749756 
	C190.238739,280.523346 190.560837,280.406952 190.982666,280.465149 
	C190.888107,280.713043 190.693802,280.786407 190.208069,280.749756 
z"/>
<path fill="#000000" opacity="1.000000" stroke="none" 
	d="
M381.986053,385.959290 
	C372.071747,387.779663 362.164825,389.641541 352.240936,391.407990 
	C343.413818,392.979248 334.544769,394.322998 325.737091,395.993011 
	C317.733459,397.510559 309.787476,399.332275 301.131378,400.911987 
	C300.257935,400.156555 300.069214,399.509033 299.895294,398.401947 
	C299.900787,382.996613 299.891510,368.050842 299.918549,352.670471 
	C299.927948,350.783630 299.901031,349.331360 299.929382,347.420654 
	C299.921417,331.372314 299.858215,315.782471 299.886841,299.820679 
	C299.947479,298.942566 299.916260,298.436401 299.928375,297.466064 
	C299.957855,282.325165 299.943970,267.648407 299.990479,252.730957 
	C300.050903,252.490250 299.916840,252.012344 299.959778,251.541428 
	C299.980255,237.038315 299.957794,223.006119 300.005676,208.733459 
	C300.027313,208.333191 299.978607,208.173416 299.964905,207.542267 
	C299.947296,199.092621 299.894745,191.114334 299.927979,182.665176 
	C300.083496,165.498123 300.153137,148.801941 300.222778,132.105774 
	C305.338593,134.155106 310.571594,135.955292 315.549927,138.296829 
	C337.239258,148.498383 358.858521,158.848907 380.485382,169.182678 
	C381.645050,169.736801 382.642212,170.631088 383.866882,172.114990 
	C384.363159,175.903259 384.707581,178.943542 385.052002,181.983841 
	C385.072052,182.435150 385.092102,182.886459 384.717163,183.907761 
	C384.207489,191.458817 383.996735,198.439850 383.993256,205.420959 
	C383.964600,263.715088 383.992737,322.009277 383.888611,380.303223 
	C383.885254,382.189728 382.648071,384.073975 381.986053,385.959290 
M339.991730,355.102051 
	C339.992493,348.285217 339.993347,341.468353 339.993927,334.651520 
	C339.996063,308.714630 340.026611,282.777649 339.907623,256.841309 
	C339.902191,255.664139 341.826172,252.684952 337.213776,253.073181 
	C327.736115,250.420288 318.258423,247.767395 308.211639,244.955200 
	C308.211639,258.880066 308.211639,272.429626 308.061157,286.497955 
	C308.094818,286.674805 308.128448,286.851685 308.077881,287.818146 
	C308.048462,288.875397 308.019012,289.932648 307.393066,291.261597 
	C307.591644,292.178009 307.790222,293.094421 308.075989,294.836884 
	C308.049500,296.219788 308.023010,297.602692 307.524200,299.113464 
	C307.681763,299.413513 307.839294,299.713562 308.079773,300.907684 
	C308.044434,303.599579 308.009064,306.291473 307.351196,309.306244 
	C307.561218,310.542175 307.771271,311.778137 308.071838,313.929413 
	C308.040100,317.614655 308.008362,321.299927 307.426727,325.200623 
	C307.609741,325.805756 307.792755,326.410858 308.067383,327.925323 
	C308.042450,331.275726 308.017548,334.626160 307.517975,338.109680 
	C307.676147,338.414368 307.834320,338.719055 308.069214,339.676392 
	C308.038544,340.112488 308.007843,340.548615 307.332977,341.340698 
	C307.546448,342.899628 307.759949,344.458557 308.062286,346.671021 
	C308.032715,347.108673 308.003143,347.546356 307.349976,348.308105 
	C307.564056,349.540527 307.778107,350.772980 308.089813,352.832581 
	C308.053070,354.218414 308.016327,355.604218 307.310974,357.361359 
	C307.525879,359.248383 307.740784,361.135437 308.052338,363.671356 
	C308.020630,364.106415 307.988922,364.541443 307.365295,365.258636 
	C307.564270,366.179749 307.763245,367.100830 308.062927,368.866913 
	C308.038269,370.567657 308.013580,372.268402 307.511444,374.105988 
	C307.670563,374.414307 307.829681,374.722626 308.070923,375.909363 
	C308.043213,378.262207 308.015472,380.615021 307.510284,383.105591 
	C307.669495,383.414337 307.828705,383.723114 308.070709,384.815704 
	C308.064819,385.866241 308.058960,386.916779 307.456512,388.227692 
	C307.699036,389.009033 307.838409,389.856171 308.262756,390.521545 
	C308.358734,390.672119 309.445465,390.190826 310.920776,390.045837 
	C319.964081,388.396759 329.007355,386.747711 338.878693,384.899963 
	C339.253326,383.927582 339.947998,382.956696 339.952545,381.982605 
	C339.993134,373.334229 339.911560,364.685272 339.991730,355.102051 
M345.314453,383.554108 
	C347.226532,383.063782 349.138611,382.573456 351.736206,382.010376 
	C358.855194,380.600433 365.974152,379.190491 373.967468,377.941040 
	C377.798309,378.001556 375.895325,375.031860 375.902985,373.643005 
	C376.038788,349.019501 375.998413,324.395020 375.997375,299.770752 
	C375.996918,288.623291 376.055603,277.475098 375.909332,266.329559 
	C375.895386,265.268097 374.608002,264.223358 373.129913,263.020569 
	C363.870819,260.418549 354.611725,257.816498 344.400360,255.108093 
	C344.268250,258.738739 344.048798,262.368652 344.017487,266.000183 
	C343.687073,304.317108 343.377045,342.634247 343.156830,380.951874 
	C343.153015,381.618439 344.330902,382.291779 345.314453,383.554108 
M367.682861,172.350647 
	C365.144501,171.246796 362.606110,170.142929 359.776978,168.347549 
	C354.503815,165.790314 349.230652,163.233078 343.590088,160.077820 
	C338.740112,158.076828 333.840698,156.186523 329.052277,154.047729 
	C322.605499,151.168213 316.244232,148.097137 309.540985,144.422974 
	C309.025940,145.356079 308.067413,146.287308 308.063416,147.222610 
	C308.015198,158.475052 308.108307,169.728073 308.040802,181.913162 
	C308.091187,188.935043 308.141571,195.956924 308.070496,203.877518 
	C308.000275,213.822083 307.884979,223.766953 307.954834,233.710526 
	C307.959839,234.422913 309.319580,235.125778 310.328674,236.555222 
	C313.551392,237.313995 316.774078,238.072784 320.698944,238.973694 
	C321.809265,239.237991 322.919617,239.502289 324.729126,240.107193 
	C335.244598,243.054062 345.732574,246.104462 356.286438,248.906799 
	C362.101471,250.450867 368.027161,251.578110 374.162842,253.721375 
	C374.776001,252.796448 375.920990,251.873642 375.924683,250.946289 
	C376.021851,226.635269 376.017059,202.323746 375.940399,178.012558 
	C375.937347,177.042557 375.059143,176.075287 374.370300,174.965317 
	C374.370300,174.965317 374.141968,175.089966 373.413849,174.858551 
	C371.606262,174.233673 369.798676,173.608810 367.682861,172.350647 
z"/>
<path fill="#325F75" opacity="1.000000" stroke="none" 
	d="
M382.223328,386.216309 
	C382.648071,384.073975 383.885254,382.189728 383.888611,380.303223 
	C383.992737,322.009277 383.964600,263.715088 383.993256,205.420959 
	C383.996735,198.439850 384.207489,191.458817 384.682770,184.245209 
	C385.365570,185.752502 385.968262,187.492157 385.969513,189.232239 
	C386.015076,252.824799 386.021271,316.417419 385.941895,380.009918 
	C385.938721,382.551147 387.339539,386.345398 382.223328,386.216309 
z"/>
<path fill="#3D6479" opacity="1.000000" stroke="none" 
	d="
M299.817688,132.175629 
	C300.153137,148.801941 300.083496,165.498123 299.642303,182.960052 
	C299.490509,191.821777 299.710205,199.917709 299.929901,208.013657 
	C299.978607,208.173416 300.027313,208.333191 299.645844,208.971619 
	C299.147675,222.936630 299.066010,236.423004 299.050720,249.909439 
	C299.049927,250.610077 299.615143,251.311371 299.916840,252.012344 
	C299.916840,252.012344 300.050903,252.490250 299.621460,252.957916 
	C299.132355,267.538330 299.059723,281.651123 299.050507,295.763916 
	C299.050049,296.485840 299.594360,297.208099 299.885010,297.930206 
	C299.916260,298.436401 299.947479,298.942566 299.640869,300.140381 
	C299.211517,315.970856 299.111084,331.109741 299.064453,346.248779 
	C299.062775,346.791382 299.592224,347.335632 299.874146,347.879120 
	C299.901031,349.331360 299.927948,350.783630 299.569000,352.903717 
	C299.129822,367.610931 299.057861,381.650269 299.060699,395.689636 
	C299.060913,396.747009 299.594727,397.804230 299.880493,398.861511 
	C300.069214,399.509033 300.257935,400.156555 300.728455,400.997009 
	C300.007782,401.031219 298.415161,401.181305 298.134521,400.644867 
	C297.655762,399.729919 297.999603,398.383972 297.999603,397.219086 
	C298.000031,310.850281 297.991394,224.481506 298.060242,138.112762 
	C298.061798,136.156662 298.942169,134.201233 299.817688,132.175629 
z"/>
<path fill="#325F75" opacity="1.000000" stroke="none" 
	d="
M385.323517,181.682770 
	C384.707581,178.943542 384.363159,175.903259 384.057800,172.414917 
	C384.735260,171.982651 385.373657,171.998428 386.012054,172.014221 
	C385.873047,175.136719 385.734039,178.259201 385.323517,181.682770 
z"/>
<path fill="#394B52" opacity="1.000000" stroke="none" 
	d="
M153.568466,295.928284 
	C153.696609,295.641541 154.283752,295.127289 154.869080,295.129364 
	C170.007660,295.182831 185.146072,295.290100 200.586914,295.652588 
	C185.268417,295.925201 169.647522,295.933289 153.568466,295.928284 
z"/>
<path fill="#394B52" opacity="1.000000" stroke="none" 
	d="
M243.731628,296.015717 
	C243.997635,308.043884 244.014359,320.057983 244.025574,332.541870 
	C243.666382,331.314301 243.021851,329.619507 243.006668,327.919128 
	C242.914505,317.593292 242.965775,307.266144 242.976074,296.471130 
	C242.983017,296.002808 243.482361,296.001617 243.731628,296.015717 
z"/>
<path fill="#288EBA" opacity="1.000000" stroke="none" 
	d="
M255.993439,222.445297 
	C255.997009,217.967743 256.005585,213.958664 256.019165,209.489960 
	C258.960693,210.231369 261.152344,209.572784 263.473206,207.187042 
	C266.916168,203.647858 270.909882,200.644470 276.005646,196.264145 
	C276.005646,203.077332 276.005646,208.566483 276.005859,214.522308 
	C276.003906,215.439529 276.001709,215.890060 275.995483,216.678696 
	C271.298004,222.251541 262.799957,223.900864 261.715057,232.712524 
	C261.517151,234.319839 258.500092,235.580048 256.395844,237.006805 
	C256.004364,232.313339 256.001404,227.613556 255.993439,222.445297 
z"/>
<path fill="#278FBB" opacity="1.000000" stroke="none" 
	d="
M307.976593,324.985168 
	C308.008362,321.299927 308.040100,317.614655 308.282043,313.253662 
	C308.319366,311.379700 308.146545,310.181549 307.973694,308.983368 
	C308.009064,306.291473 308.044434,303.599579 308.049164,300.203613 
	C308.011200,299.328217 308.003876,299.156891 307.996552,298.985596 
	C308.023010,297.602692 308.049500,296.219788 308.276520,294.235016 
	C308.314575,292.752075 308.152069,291.870972 307.989563,290.989899 
	C308.019012,289.932648 308.048462,288.875397 308.252319,287.319702 
	C308.473022,286.720123 308.582947,286.591675 308.553497,286.523071 
	C308.470062,286.328705 308.329620,286.158752 308.211639,285.979187 
	C308.211639,272.429626 308.211639,258.880066 308.211639,244.955200 
	C318.258423,247.767395 327.736115,250.420288 337.629211,253.288269 
	C338.044647,253.503342 338.037231,253.792175 338.022491,254.279175 
	C338.005585,272.407928 337.978699,290.049774 338.039642,307.691345 
	C338.045685,309.446655 338.586700,311.200104 338.904541,313.289307 
	C338.904449,314.070740 338.879272,314.517303 338.535339,315.044189 
	C333.481171,321.416992 328.745697,327.709412 323.710266,334.164734 
	C321.856171,336.647308 320.691162,339.411621 318.661377,341.187592 
	C315.184753,344.229523 314.289459,349.756958 309.044617,350.680511 
	C308.669769,349.554596 308.321655,348.769287 307.973572,347.984009 
	C308.003143,347.546356 308.032715,347.108673 308.280823,346.105957 
	C308.325256,344.022156 308.151184,342.503418 307.977142,340.984711 
	C308.007843,340.548615 308.038544,340.112488 308.041748,339.088226 
	C308.007050,338.325562 307.999847,338.151062 307.992615,337.976562 
	C308.017548,334.626160 308.042450,331.275726 308.242554,327.320679 
	C308.270691,326.139069 308.123627,325.562103 307.976593,324.985168 
z"/>
<path fill="#288FBA" opacity="1.000000" stroke="none" 
	d="
M373.093140,377.780548 
	C365.974152,379.190491 358.855194,380.600433 351.123047,381.763428 
	C346.811157,381.258362 345.884796,379.264923 345.918091,375.665405 
	C346.095703,356.452545 345.995270,337.237152 346.284943,317.855652 
	C355.726532,305.433960 364.874207,293.179291 374.350800,281.200378 
	C374.772186,281.962677 374.945312,282.449188 374.945587,282.935730 
	C374.962433,313.149811 374.990265,343.363983 374.889557,373.577698 
	C374.884888,374.980621 373.718475,376.379700 373.093140,377.780548 
z"/>
<path fill="#288EBA" opacity="1.000000" stroke="none" 
	d="
M373.903015,252.893280 
	C368.027161,251.578110 362.101471,250.450867 356.286438,248.906799 
	C345.732574,246.104462 335.244598,243.054062 324.418762,239.607147 
	C326.725952,235.727570 329.343506,232.348053 332.124023,228.675949 
	C340.807983,217.449234 349.305115,206.496414 357.858551,195.587738 
	C363.242767,188.720978 368.711304,181.920303 374.141968,175.089966 
	C374.141968,175.089966 374.370300,174.965317 374.557190,175.492737 
	C374.810211,200.962753 374.884674,225.905319 374.898834,250.847946 
	C374.899231,251.529526 374.249542,252.211487 373.903015,252.893280 
z"/>
<path fill="#4DADD3" opacity="1.000000" stroke="none" 
	d="
M310.049438,235.833038 
	C309.319580,235.125778 307.959839,234.422913 307.954834,233.710526 
	C307.884979,223.766953 308.000275,213.822083 308.336609,203.670578 
	C308.858490,204.394379 309.114258,205.325134 309.562714,206.957199 
	C310.938202,205.373505 312.039337,204.238739 312.989502,202.989166 
	C317.787964,196.678528 322.626129,190.395630 327.299835,183.993134 
	C332.931458,176.278427 338.411713,168.453232 343.957489,160.675842 
	C349.230652,163.233078 354.503815,165.790314 359.645630,168.878769 
	C346.667053,186.477188 333.794586,203.525528 320.988251,220.623367 
	C317.245178,225.620773 313.690460,230.759232 310.049438,235.833038 
z"/>
<path fill="#2890BB" opacity="1.000000" stroke="none" 
	d="
M307.988892,373.969147 
	C308.013580,372.268402 308.038269,370.567657 308.258606,368.253265 
	C308.288605,366.751923 308.122925,365.864197 307.957214,364.976501 
	C307.988922,364.541443 308.020630,364.106415 308.233582,363.231384 
	C308.627350,362.524658 308.839844,362.257935 309.420990,361.984436 
	C311.016327,361.550293 312.762756,361.498810 313.386932,360.635742 
	C318.050354,354.187225 322.491852,347.578247 327.339844,340.947632 
	C328.330627,340.167908 328.980865,339.456757 329.638824,338.752869 
	C332.392029,335.807404 335.147583,332.864105 337.929718,330.392944 
	C337.988312,348.943451 338.019470,367.021057 338.050659,385.098633 
	C329.007355,386.747711 319.964081,388.396759 310.435120,389.709229 
	C309.317352,388.904175 308.685211,388.435760 308.053101,387.967316 
	C308.058960,386.916779 308.064819,385.866241 308.040222,384.157715 
	C308.002411,383.322479 307.995087,383.145172 307.987762,382.967865 
	C308.015472,380.615021 308.043213,378.262207 308.040894,375.204651 
	C308.003540,374.323029 307.996216,374.146088 307.988892,373.969147 
z"/>
<path fill="#278BB6" opacity="1.000000" stroke="none" 
	d="
M343.773804,160.376831 
	C338.411713,168.453232 332.931458,176.278427 327.299835,183.993134 
	C322.626129,190.395630 317.787964,196.678528 312.989502,202.989166 
	C312.039337,204.238739 310.938202,205.373505 309.562714,206.957199 
	C309.114258,205.325134 308.858490,204.394379 308.397339,203.221222 
	C308.141571,195.956924 308.091187,188.935043 308.353790,181.119263 
	C308.786041,171.844803 308.843414,163.362686 309.055878,154.884476 
	C309.137665,151.621201 309.572388,148.366745 309.846283,145.108276 
	C316.244232,148.097137 322.605499,151.168213 329.052277,154.047729 
	C333.840698,156.186523 338.740112,158.076828 343.773804,160.376831 
z"/>
<path fill="#288FBA" opacity="1.000000" stroke="none" 
	d="
M345.352631,255.214478 
	C354.611725,257.816498 363.870819,260.418549 373.540802,263.525269 
	C373.908142,266.341400 373.864563,268.652832 373.504669,271.048889 
	C369.396790,275.665344 365.516418,280.126404 361.834778,284.745880 
	C356.494781,291.446106 351.298340,298.260742 346.028381,304.556427 
	C346.011017,290.976044 346.045532,277.865631 345.970490,264.755829 
	C345.953613,261.810242 345.553894,258.866882 345.314880,255.744812 
	C345.299316,255.567154 345.352631,255.214478 345.352631,255.214478 
z"/>
<path fill="#298FBA" opacity="1.000000" stroke="none" 
	d="
M310.189056,236.194122 
	C313.690460,230.759232 317.245178,225.620773 320.988251,220.623367 
	C333.794586,203.525528 346.667053,186.477188 359.791016,169.224533 
	C362.606110,170.142929 365.144501,171.246796 367.699829,172.974289 
	C357.519470,186.667740 347.234619,199.670700 337.170502,212.842300 
	C333.471466,217.683472 330.294220,222.923279 326.546143,228.034424 
	C324.280518,230.399323 322.191284,232.603851 320.495483,235.078018 
	C319.858887,236.006805 320.136169,237.561966 319.996796,238.831558 
	C316.774078,238.072784 313.551392,237.313995 310.189056,236.194122 
z"/>
<path fill="#4AADD5" opacity="1.000000" stroke="none" 
	d="
M326.878967,227.981247 
	C330.294220,222.923279 333.471466,217.683472 337.170502,212.842300 
	C347.234619,199.670700 357.519470,186.667740 367.853943,173.290924 
	C369.798676,173.608810 371.606262,174.233673 373.777893,174.974258 
	C368.711304,181.920303 363.242767,188.720978 357.858551,195.587738 
	C349.305115,206.496414 340.807983,217.449234 331.759277,228.635651 
	C329.780701,228.585693 328.329834,228.283478 326.878967,227.981247 
z"/>
<path fill="#2F98C3" opacity="1.000000" stroke="none" 
	d="
M327.002869,341.019531 
	C322.491852,347.578247 318.050354,354.187225 313.386932,360.635742 
	C312.762756,361.498810 311.016327,361.550293 309.405762,361.598206 
	C308.674438,359.809235 308.327026,358.399628 307.979614,356.990051 
	C308.016327,355.604218 308.053070,354.218414 308.269287,352.315857 
	C308.656281,351.539764 308.863831,351.280426 309.071381,351.021118 
	C314.289459,349.756958 315.184753,344.229523 318.661377,341.187592 
	C320.691162,339.411621 321.856171,336.647308 323.959167,334.405640 
	C325.339691,336.662262 326.171295,338.840912 327.002869,341.019531 
z"/>
<path fill="#2A7FA1" opacity="1.000000" stroke="none" 
	d="
M345.330414,255.922485 
	C345.553894,258.866882 345.953613,261.810242 345.970490,264.755829 
	C346.045532,277.865631 346.011017,290.976044 346.011810,305.016724 
	C346.002014,309.972351 345.996521,313.997498 345.991028,318.022614 
	C345.995270,337.237152 346.095703,356.452545 345.918091,375.665405 
	C345.884796,379.264923 346.811157,381.258362 350.780273,381.799835 
	C349.138611,382.573456 347.226532,383.063782 345.143066,382.791382 
	C344.986908,352.444031 344.973969,322.859344 345.030792,293.274780 
	C345.054718,280.823883 345.226074,268.373230 345.330414,255.922485 
z"/>
<path fill="#B1D7E5" opacity="1.000000" stroke="none" 
	d="
M373.820984,270.964264 
	C373.864563,268.652832 373.908142,266.341400 373.931763,263.600403 
	C374.608002,264.223358 375.895386,265.268097 375.909332,266.329559 
	C376.055603,277.475098 375.996918,288.623291 375.997375,299.770752 
	C375.998413,324.395020 376.038788,349.019501 375.902985,373.643005 
	C375.895325,375.031860 377.798309,378.001556 373.530304,377.860779 
	C373.718475,376.379700 374.884888,374.980621 374.889557,373.577698 
	C374.990265,343.363983 374.962433,313.149811 374.945587,282.935730 
	C374.945312,282.449188 374.772186,281.962677 374.338837,280.751404 
	C373.938965,277.005859 373.879974,273.985077 373.820984,270.964264 
z"/>
<path fill="#BEE1F9" opacity="1.000000" stroke="none" 
	d="
M345.314880,255.744812 
	C345.226074,268.373230 345.054718,280.823883 345.030792,293.274780 
	C344.973969,322.859344 344.986908,352.444031 344.964539,382.495331 
	C344.330902,382.291779 343.153015,381.618439 343.156830,380.951874 
	C343.377045,342.634247 343.687073,304.317108 344.017487,266.000183 
	C344.048798,262.368652 344.268250,258.738739 344.876495,255.161285 
	C345.352631,255.214478 345.299316,255.567154 345.314880,255.744812 
z"/>
<path fill="#89BBD3" opacity="1.000000" stroke="none" 
	d="
M338.854065,314.963837 
	C338.879272,314.517303 338.904449,314.070740 338.955627,312.827026 
	C338.998169,294.172302 339.039520,276.314758 338.988068,258.457428 
	C338.983612,256.901428 338.368622,255.347214 338.037231,253.792175 
	C338.037231,253.792175 338.044647,253.503342 338.023804,253.360474 
	C341.826172,252.684952 339.902191,255.664139 339.907623,256.841309 
	C340.026611,282.777649 339.996063,308.714630 339.993927,334.651520 
	C339.993347,341.468353 339.992493,348.285217 339.640198,355.261414 
	C339.154388,345.321503 339.020111,335.222198 338.917236,324.657959 
	C338.917145,321.116638 338.885590,318.040222 338.854065,314.963837 
z"/>
<path fill="#2A7FA1" opacity="1.000000" stroke="none" 
	d="
M338.885834,325.122925 
	C339.020111,335.222198 339.154388,345.321503 339.577332,355.728638 
	C339.911560,364.685272 339.993134,373.334229 339.952545,381.982605 
	C339.947998,382.956696 339.253326,383.927582 338.464661,384.999298 
	C338.019470,367.021057 337.988312,348.943451 337.951599,330.025513 
	C338.259308,327.831055 338.572571,326.476990 338.885834,325.122925 
z"/>
<path fill="#B1D7E5" opacity="1.000000" stroke="none" 
	d="
M374.032928,253.307327 
	C374.249542,252.211487 374.899231,251.529526 374.898834,250.847946 
	C374.884674,225.905319 374.810211,200.962753 374.666382,175.563461 
	C375.059143,176.075287 375.937347,177.042557 375.940399,178.012558 
	C376.017059,202.323746 376.021851,226.635269 375.924683,250.946289 
	C375.920990,251.873642 374.776001,252.796448 374.032928,253.307327 
z"/>
<path fill="#3CA1CA" opacity="1.000000" stroke="none" 
	d="
M326.546143,228.034424 
	C328.329834,228.283478 329.780701,228.585693 331.596313,228.928223 
	C329.343506,232.348053 326.725952,235.727570 324.069153,239.436829 
	C322.919617,239.502289 321.809265,239.237991 320.347870,238.902618 
	C320.136169,237.561966 319.858887,236.006805 320.495483,235.078018 
	C322.191284,232.603851 324.280518,230.399323 326.546143,228.034424 
z"/>
<path fill="#D2DFE8" opacity="1.000000" stroke="none" 
	d="
M299.929382,347.420654 
	C299.592224,347.335632 299.062775,346.791382 299.064453,346.248779 
	C299.111084,331.109741 299.211517,315.970856 299.549042,300.512268 
	C299.858215,315.782471 299.921417,331.372314 299.929382,347.420654 
z"/>
<path fill="#D2DFE8" opacity="1.000000" stroke="none" 
	d="
M299.895264,398.401947 
	C299.594727,397.804230 299.060913,396.747009 299.060699,395.689636 
	C299.057861,381.650269 299.129822,367.610931 299.532684,353.338318 
	C299.891510,368.050842 299.900787,382.996613 299.895264,398.401947 
z"/>
<path fill="#D2DFE8" opacity="1.000000" stroke="none" 
	d="
M299.928375,297.466064 
	C299.594360,297.208099 299.050049,296.485840 299.050507,295.763916 
	C299.059723,281.651123 299.132355,267.538330 299.561035,253.198608 
	C299.943970,267.648407 299.957855,282.325165 299.928375,297.466064 
z"/>
<path fill="#D2DFE8" opacity="1.000000" stroke="none" 
	d="
M299.959778,251.541428 
	C299.615143,251.311371 299.049927,250.610077 299.050720,249.909439 
	C299.066010,236.423004 299.147675,222.936630 299.575470,209.212097 
	C299.957794,223.006119 299.980255,237.038315 299.959778,251.541428 
z"/>
<path fill="#3996BE" opacity="1.000000" stroke="none" 
	d="
M309.693634,144.765625 
	C309.572388,148.366745 309.137665,151.621201 309.055878,154.884476 
	C308.843414,163.362686 308.786041,171.844803 308.415649,180.653152 
	C308.108307,169.728073 308.015198,158.475052 308.063416,147.222610 
	C308.067413,146.287308 309.025940,145.356079 309.693634,144.765625 
z"/>
<path fill="#D2DFE8" opacity="1.000000" stroke="none" 
	d="
M299.964905,207.542267 
	C299.710205,199.917709 299.490509,191.821777 299.556458,183.430939 
	C299.894745,191.114334 299.947296,199.092621 299.964905,207.542267 
z"/>
<path fill="#2D7A99" opacity="1.000000" stroke="none" 
	d="
M307.645294,357.175720 
	C308.327026,358.399628 308.674438,359.809235 309.037109,361.605011 
	C308.839844,362.257935 308.627350,362.524658 308.185242,362.906921 
	C307.740784,361.135437 307.525879,359.248383 307.645294,357.175720 
z"/>
<path fill="#2D7A99" opacity="1.000000" stroke="none" 
	d="
M307.655060,341.162720 
	C308.151184,342.503418 308.325256,344.022156 308.236389,345.779175 
	C307.759949,344.458557 307.546448,342.899628 307.655060,341.162720 
z"/>
<path fill="#2D7A99" opacity="1.000000" stroke="none" 
	d="
M307.662445,309.144806 
	C308.146545,310.181549 308.319366,311.379700 308.236755,312.795959 
	C307.771271,311.778137 307.561218,310.542175 307.662445,309.144806 
z"/>
<path fill="#2D7A99" opacity="1.000000" stroke="none" 
	d="
M307.754822,388.097504 
	C308.685211,388.435760 309.317352,388.904175 310.012817,389.686523 
	C309.445465,390.190826 308.358734,390.672119 308.262756,390.521545 
	C307.838409,389.856171 307.699036,389.009033 307.754822,388.097504 
z"/>
<path fill="#2D7A99" opacity="1.000000" stroke="none" 
	d="
M309.044617,350.680511 
	C308.863831,351.280426 308.656281,351.539764 308.220459,351.902252 
	C307.778107,350.772980 307.564056,349.540527 307.661743,348.146057 
	C308.321655,348.769287 308.669769,349.554596 309.044617,350.680511 
z"/>
<path fill="#2D7A99" opacity="1.000000" stroke="none" 
	d="
M307.661255,365.117554 
	C308.122925,365.864197 308.288605,366.751923 308.208282,367.830780 
	C307.763245,367.100830 307.564270,366.179749 307.661255,365.117554 
z"/>
<path fill="#2D7A99" opacity="1.000000" stroke="none" 
	d="
M307.691315,291.125732 
	C308.152069,291.870972 308.314575,292.752075 308.232910,293.821991 
	C307.790222,293.094421 307.591644,292.178009 307.691315,291.125732 
z"/>
<path fill="#2D7A99" opacity="1.000000" stroke="none" 
	d="
M307.701660,325.092896 
	C308.123627,325.562103 308.270691,326.139069 308.196777,326.865997 
	C307.792755,326.410858 307.609741,325.805756 307.701660,325.092896 
z"/>
<path fill="#2D7A99" opacity="1.000000" stroke="none" 
	d="
M307.755310,338.043121 
	C307.999847,338.151062 308.007050,338.325562 308.003357,338.761902 
	C307.834320,338.719055 307.676147,338.414368 307.755310,338.043121 
z"/>
<path fill="#2D7A99" opacity="1.000000" stroke="none" 
	d="
M308.136414,286.238586 
	C308.329620,286.158752 308.470062,286.328705 308.553497,286.523071 
	C308.582947,286.591675 308.473022,286.720123 308.294434,286.924896 
	C308.128448,286.851685 308.094818,286.674805 308.136414,286.238586 
z"/>
<path fill="#2D7A99" opacity="1.000000" stroke="none" 
	d="
M307.750183,374.037567 
	C307.996216,374.146088 308.003540,374.323029 307.999817,374.765442 
	C307.829681,374.722626 307.670563,374.414307 307.750183,374.037567 
z"/>
<path fill="#2D7A99" opacity="1.000000" stroke="none" 
	d="
M307.749023,383.036743 
	C307.995087,383.145172 308.002411,383.322479 307.998810,383.765808 
	C307.828705,383.723114 307.669495,383.414337 307.749023,383.036743 
z"/>
<path fill="#2D7A99" opacity="1.000000" stroke="none" 
	d="
M307.760376,299.049530 
	C308.003876,299.156891 308.011200,299.328217 308.007690,299.756592 
	C307.839294,299.713562 307.681763,299.413513 307.760376,299.049530 
z"/>
<path fill="#3CA1CA" opacity="1.000000" stroke="none" 
	d="
M338.917236,324.657959 
	C338.572571,326.476990 338.259308,327.831055 337.924194,329.552551 
	C335.147583,332.864105 332.392029,335.807404 329.638824,338.752869 
	C328.980865,339.456757 328.330627,340.167908 327.339844,340.947632 
	C326.171295,338.840912 325.339691,336.662262 324.259186,334.242737 
	C328.745697,327.709412 333.481171,321.416992 338.535339,315.044189 
	C338.885590,318.040222 338.917145,321.116638 338.917236,324.657959 
z"/>
<path fill="#2A7FA1" opacity="1.000000" stroke="none" 
	d="
M338.022491,254.279175 
	C338.368622,255.347214 338.983612,256.901428 338.988068,258.457428 
	C339.039520,276.314758 338.998169,294.172302 338.930511,312.492126 
	C338.586700,311.200104 338.045685,309.446655 338.039642,307.691345 
	C337.978699,290.049774 338.005585,272.407928 338.022491,254.279175 
z"/>
<path fill="#3CA1CA" opacity="1.000000" stroke="none" 
	d="
M373.504669,271.048889 
	C373.879974,273.985077 373.938965,277.005859 374.009918,280.475647 
	C364.874207,293.179291 355.726532,305.433960 346.284943,317.855652 
	C345.996521,313.997498 346.002014,309.972351 346.024109,305.486938 
	C351.298340,298.260742 356.494781,291.446106 361.834778,284.745880 
	C365.516418,280.126404 369.396790,275.665344 373.504669,271.048889 
z"/>
</svg>